<svg width="215" height="215" viewBox="0 0 215 215" fill="none" xmlns="http://www.w3.org/2000/svg">
<path d="M96.792 75.375H118.209V53.9583H96.792M107.5 193.167C60.2766 193.167 21.8337 154.724 21.8337 107.5C21.8337 60.2762 60.2766 21.8333 107.5 21.8333C154.724 21.8333 193.167 60.2762 193.167 107.5C193.167 154.724 154.724 193.167 107.5 193.167ZM107.5 0.416656C93.4379 0.416656 79.5133 3.18645 66.5213 8.56789C53.5294 13.9493 41.7246 21.837 31.781 31.7806C11.699 51.8627 0.416992 79.0997 0.416992 107.5C0.416992 135.9 11.699 163.137 31.781 183.219C41.7246 193.163 53.5294 201.051 66.5213 206.432C79.5133 211.814 93.4379 214.583 107.5 214.583C135.901 214.583 163.138 203.301 183.22 183.219C203.302 163.137 214.584 135.9 214.584 107.5C214.584 93.4376 211.814 79.5129 206.432 66.521C201.051 53.529 193.163 41.7242 183.22 31.7806C173.276 21.837 161.471 13.9493 148.479 8.56789C135.487 3.18645 121.563 0.416656 107.5 0.416656ZM96.792 161.042H118.209V96.7917H96.792V161.042Z" fill="white"/>
</svg>
