<svg width="107" height="107" viewBox="0 0 107 107" fill="none" xmlns="http://www.w3.org/2000/svg">
<g clip-path="url(#clip0_1022_1194)">
<path d="M48.4814 84.8838L48.4998 84.8881L48.4814 84.8838Z" fill="#212D64"/>
<path fill-rule="evenodd" clip-rule="evenodd" d="M7.13379 10.7C7.13379 4.79055 11.9243 0 17.8338 0H76.3778L99.8671 23.4893V96.3C99.8671 102.209 95.0764 107 89.1671 107H17.8338C11.9243 107 7.13379 102.209 7.13379 96.3V10.7ZM49.9338 28.5333H28.5338V35.6667H49.9338V28.5333ZM78.4671 49.9333H28.5338V57.0667H78.4671V49.9333ZM44.974 77.809C42.0932 78.5829 39.8434 80.7829 39.0506 83.1611L32.2833 80.9055C33.8683 76.1505 38.0385 72.2863 43.1232 70.9202C48.1674 69.5651 53.9183 70.7002 58.8977 75.2809C60.3935 74.8408 61.8754 74.5933 63.3407 74.5148C67.1834 74.3086 70.6367 75.2781 73.5972 76.5114C75.7714 77.4174 77.8793 78.563 79.652 79.526C80.2176 79.8334 80.7505 80.123 81.2391 80.3798C83.5453 81.5904 84.8144 82.0333 85.6005 82.0333V89.1667C82.8192 89.1667 80.0757 87.8256 77.9236 86.6957C77.2595 86.3469 76.6167 85.998 75.9826 85.6535C74.2898 84.734 72.6577 83.8481 70.8535 83.0962C68.4638 82.1004 66.1214 81.509 63.7224 81.6381C63.3736 81.6567 63.0176 81.6909 62.6542 81.743L62.6627 81.8379C62.8533 84.1548 61.897 86.0601 60.6655 87.4283C58.3929 89.9535 54.6907 91.2781 51.9091 91.7839C50.4602 92.0471 48.9016 92.1577 47.5294 91.9572C46.8576 91.8588 45.9915 91.6526 45.1755 91.1669C44.3079 90.6504 43.2796 89.6624 43.016 88.081C42.7709 86.6101 43.3245 85.3974 43.8083 84.652C44.3073 83.883 44.9793 83.2182 45.6735 82.6439C47.0247 81.5247 48.9932 80.3149 51.6233 78.9846L51.8151 78.8454C49.3307 77.3938 46.9448 77.2797 44.974 77.809Z" fill="#212D64"/>
</g>
<defs>
<clipPath id="clip0_1022_1194">
<rect width="107" height="107" fill="white"/>
</clipPath>
</defs>
</svg>
