<svg width="107" height="107" viewBox="0 0 107 107" fill="none" xmlns="http://www.w3.org/2000/svg">
<path d="M78.1925 53.5H28.8079C26.9896 53.5 25.5156 54.974 25.5156 56.7923V60.0846C25.5156 61.9029 26.9896 63.3769 28.8079 63.3769H78.1925C80.0108 63.3769 81.4849 61.9029 81.4849 60.0846V56.7923C81.4849 54.974 80.0108 53.5 78.1925 53.5Z" fill="#212D64"/>
<path d="M71.6079 73.2538H28.8079C26.9896 73.2538 25.5156 74.7279 25.5156 76.5462V79.8385C25.5156 81.6568 26.9896 83.1308 28.8079 83.1308H71.6079C73.4262 83.1308 74.9002 81.6568 74.9002 79.8385V76.5462C74.9002 74.7279 73.4262 73.2538 71.6079 73.2538Z" fill="#212D64"/>
<path d="M74.8999 30.4539H92.3492C92.6541 30.4624 92.9576 30.4086 93.2411 30.2958C93.5245 30.183 93.782 30.0135 93.9977 29.7978C94.2135 29.5821 94.3829 29.3246 94.4957 29.0412C94.6085 28.7577 94.6623 28.4542 94.6538 28.1493C94.6737 27.8431 94.6249 27.5365 94.5109 27.2516C94.397 26.9668 94.2208 26.7111 93.9953 26.5031L72.2661 4.77388C72.0581 4.54836 71.8024 4.37219 71.5176 4.25826C71.2328 4.14433 70.9261 4.09552 70.6199 4.11541C70.315 4.1069 70.0115 4.16069 69.728 4.27349C69.4446 4.3863 69.1871 4.55574 68.9714 4.77147C68.7557 4.98719 68.5862 5.24466 68.4734 5.52812C68.3606 5.81158 68.3068 6.11507 68.3153 6.42003V23.8693C68.3208 25.6139 69.0162 27.2856 70.2499 28.5193C71.4836 29.753 73.1553 30.4485 74.8999 30.4539Z" fill="#212D64"/>
<path d="M91.3611 40.3308H68.3149C65.6971 40.3254 63.188 39.283 61.3369 37.4319C59.4858 35.5808 58.4434 33.0717 58.438 30.4539V7.40772C58.438 6.53455 58.0911 5.69714 57.4737 5.07971C56.8563 4.46228 56.0189 4.11542 55.1457 4.11542H22.2226C19.6048 4.12085 17.0957 5.1632 15.2446 7.01431C13.3935 8.86541 12.3511 11.3745 12.3457 13.9923V93.0077C12.3511 95.6256 13.3935 98.1347 15.2446 99.9858C17.0957 101.837 19.6048 102.879 22.2226 102.885H84.7765C87.3943 102.879 89.9034 101.837 91.7545 99.9858C93.6056 98.1347 94.648 95.6256 94.6534 93.0077V43.6231C94.6534 43.1908 94.5682 42.7626 94.4028 42.3632C94.2373 41.9638 93.9948 41.6008 93.6891 41.2951C93.3834 40.9894 93.0204 40.7469 92.621 40.5814C92.2216 40.416 91.7934 40.3308 91.3611 40.3308ZM25.5149 37.0385C25.5517 36.1867 25.9135 35.3813 26.5259 34.7881C27.1383 34.1948 27.9547 33.8588 28.8072 33.8491H42.2851C42.7067 33.8464 43.1246 33.9267 43.5151 34.0855C43.9056 34.2443 44.261 34.4785 44.561 34.7747C44.861 35.0709 45.0997 35.4232 45.2635 35.8116C45.4273 36.2001 45.513 36.6169 45.5157 37.0385V40.3102C45.4896 41.1678 45.1359 41.9827 44.5274 42.5874C43.9188 43.1922 43.1017 43.5407 42.244 43.5614H28.8072C28.378 43.5698 27.9515 43.4914 27.5532 43.331C27.155 43.1706 26.7932 42.9314 26.4896 42.6278C26.1861 42.3242 25.9469 41.9625 25.7865 41.5643C25.6261 41.166 25.5477 40.7395 25.5561 40.3102L25.5149 37.0385ZM74.8996 79.7768C74.8996 80.6499 74.5527 81.4874 73.9353 82.1048C73.3178 82.7222 72.4804 83.0691 71.6072 83.0691H28.8072C27.9341 83.0691 27.0967 82.7222 26.4792 82.1048C25.8618 81.4874 25.5149 80.6499 25.5149 79.7768V76.5462C25.5149 75.673 25.8618 74.8356 26.4792 74.2182C27.0967 73.6007 27.9341 73.2539 28.8072 73.2539H71.6072C72.4804 73.2539 73.3178 73.6007 73.9353 74.2182C74.5527 74.8356 74.8996 75.673 74.8996 76.5462V79.7768ZM81.4842 60.0229C81.4924 60.4604 81.4133 60.8952 81.2515 61.3018C81.0897 61.7084 80.8485 62.0787 80.542 62.3909C80.2354 62.7032 79.8697 62.9513 79.4662 63.1206C79.0627 63.2899 78.6295 63.377 78.1919 63.377H28.8072C27.9341 63.377 27.0967 63.0301 26.4792 62.4127C25.8618 61.7952 25.5149 60.9578 25.5149 60.0846V56.7923C25.5149 55.9192 25.8618 55.0818 26.4792 54.4643C27.0967 53.8469 27.9341 53.5 28.8072 53.5H78.1919C79.065 53.5 79.9024 53.8469 80.5199 54.4643C81.1373 55.0818 81.4842 55.9192 81.4842 56.7923V60.0229Z" fill="#212D64"/>
</svg>
