<svg width="20" height="26" viewBox="0 0 20 26" fill="none" xmlns="http://www.w3.org/2000/svg">
<path d="M6.25 10.5H7.5C7.83152 10.5 8.14946 10.3683 8.38388 10.1339C8.6183 9.89946 8.75 9.58152 8.75 9.25C8.75 8.91848 8.6183 8.60054 8.38388 8.36612C8.14946 8.1317 7.83152 8 7.5 8H6.25C5.91848 8 5.60054 8.1317 5.36612 8.36612C5.1317 8.60054 5 8.91848 5 9.25C5 9.58152 5.1317 9.89946 5.36612 10.1339C5.60054 10.3683 5.91848 10.5 6.25 10.5ZM6.25 13C5.91848 13 5.60054 13.1317 5.36612 13.3661C5.1317 13.6005 5 13.9185 5 14.25C5 14.5815 5.1317 14.8995 5.36612 15.1339C5.60054 15.3683 5.91848 15.5 6.25 15.5H13.75C14.0815 15.5 14.3995 15.3683 14.6339 15.1339C14.8683 14.8995 15 14.5815 15 14.25C15 13.9185 14.8683 13.6005 14.6339 13.3661C14.3995 13.1317 14.0815 13 13.75 13H6.25ZM20 9.175C19.987 9.06017 19.9618 8.94704 19.925 8.8375V8.725C19.8649 8.59647 19.7847 8.47833 19.6875 8.375L12.1875 0.875C12.0842 0.77777 11.966 0.697601 11.8375 0.6375C11.8002 0.6322 11.7623 0.6322 11.725 0.6375C11.598 0.564677 11.4578 0.51793 11.3125 0.5H3.75C2.75544 0.5 1.80161 0.895088 1.09835 1.59835C0.395088 2.30161 0 3.25544 0 4.25V21.75C0 22.7446 0.395088 23.6984 1.09835 24.4017C1.80161 25.1049 2.75544 25.5 3.75 25.5H16.25C17.2446 25.5 18.1984 25.1049 18.9017 24.4017C19.6049 23.6984 20 22.7446 20 21.75V9.25C20 9.25 20 9.25 20 9.175ZM12.5 4.7625L15.7375 8H13.75C13.4185 8 13.1005 7.8683 12.8661 7.63388C12.6317 7.39946 12.5 7.08152 12.5 6.75V4.7625ZM17.5 21.75C17.5 22.0815 17.3683 22.3995 17.1339 22.6339C16.8995 22.8683 16.5815 23 16.25 23H3.75C3.41848 23 3.10054 22.8683 2.86612 22.6339C2.6317 22.3995 2.5 22.0815 2.5 21.75V4.25C2.5 3.91848 2.6317 3.60054 2.86612 3.36612C3.10054 3.1317 3.41848 3 3.75 3H10V6.75C10 7.74456 10.3951 8.69839 11.0983 9.40165C11.8016 10.1049 12.7554 10.5 13.75 10.5H17.5V21.75ZM13.75 18H6.25C5.91848 18 5.60054 18.1317 5.36612 18.3661C5.1317 18.6005 5 18.9185 5 19.25C5 19.5815 5.1317 19.8995 5.36612 20.1339C5.60054 20.3683 5.91848 20.5 6.25 20.5H13.75C14.0815 20.5 14.3995 20.3683 14.6339 20.1339C14.8683 19.8995 15 19.5815 15 19.25C15 18.9185 14.8683 18.6005 14.6339 18.3661C14.3995 18.1317 14.0815 18 13.75 18Z" fill="white"/>
</svg>
