<svg width="25" height="26" viewBox="0 0 25 26" fill="none" xmlns="http://www.w3.org/2000/svg">
<path d="M22.5 6.25326H23.75V21.7362C23.75 22.4206 23.4866 23.0769 23.0178 23.5609C22.5489 24.0448 21.913 24.3167 21.25 24.3167M21.25 24.3167C20.587 24.3167 19.9511 24.0448 19.4822 23.5609C19.0134 23.0769 18.75 22.4206 18.75 21.7362V2.38253C18.75 2.04034 18.6183 1.71216 18.3839 1.47019C18.1495 1.22822 17.8315 1.09229 17.5 1.09229H2.5C2.16848 1.09229 1.85054 1.22822 1.61612 1.47019C1.3817 1.71216 1.25 2.04034 1.25 2.38253V21.7362C1.25 22.4206 1.51339 23.0769 1.98223 23.5609C2.45107 24.0448 3.08696 24.3167 3.75 24.3167H21.25ZM12.5 4.96302H15M12.5 8.83375H15M5 12.7045H15M5 16.5752H15M5 20.4459H15M5 4.96302H8.75V8.83375H5V4.96302Z" stroke="white" stroke-width="2" stroke-linecap="round" stroke-linejoin="round"/>
</svg>
