<svg width="25" height="27" viewBox="0 0 25 27" fill="none" xmlns="http://www.w3.org/2000/svg">
<path d="M20.8333 1.68802V19.0547C20.8334 19.3181 20.7631 19.5764 20.6302 19.8013C20.4974 20.0261 20.3071 20.2089 20.0802 20.3294C19.8534 20.45 19.5987 20.5037 19.3442 20.4847C19.0897 20.4657 18.8452 20.3747 18.6375 20.2217L11.1111 14.6722V6.07054L18.6375 0.521062C18.8452 0.368036 19.0897 0.277024 19.3442 0.258013C19.5987 0.239001 19.8534 0.292726 20.0802 0.41329C20.3071 0.533855 20.4974 0.716599 20.6302 0.941467C20.7631 1.16633 20.8334 1.42463 20.8333 1.68802ZM9.72222 4.63694H2.77778C2.04107 4.63694 1.33453 4.93902 0.813592 5.47673C0.292658 6.01443 0 6.74372 0 7.50415L0 13.2386C0 13.999 0.292658 14.7283 0.813592 15.266C1.33453 15.8037 2.04107 16.1058 2.77778 16.1058V23.2738C2.77778 24.0342 3.07044 24.7635 3.59137 25.3012C4.1123 25.8389 4.81884 26.141 5.55556 26.141H6.94444C7.68116 26.141 8.3877 25.8389 8.90863 25.3012C9.42956 24.7635 9.72222 24.0342 9.72222 23.2738V4.63694ZM5.55556 23.2738V16.1058H6.94444V23.2738H5.55556ZM22.2222 6.33289V14.4098C23.0331 14.1165 23.7357 13.5703 24.2328 12.8468C24.7298 12.1233 24.9968 11.2583 24.9968 10.3714C24.9968 9.48442 24.7298 8.6194 24.2328 7.89591C23.7357 7.17243 23.0331 6.62625 22.2222 6.33289Z" fill="white"/>
</svg>
