<svg width="107" height="107" viewBox="0 0 107 107" fill="none" xmlns="http://www.w3.org/2000/svg">
<g clip-path="url(#clip0_1022_1148)">
<path d="M96.1097 23.0865C96.0952 23.0135 96.0749 22.9439 96.0519 22.8734C96.04 22.8411 96.0358 22.8063 96.0231 22.7749C95.9916 22.6993 95.9509 22.628 95.9084 22.5575C95.8948 22.5345 95.8863 22.5099 95.8702 22.487C95.8099 22.3961 95.7403 22.3103 95.663 22.2339L73.9199 0.490841C73.8435 0.413563 73.7586 0.343929 73.6669 0.282786C73.6439 0.268349 73.6193 0.258159 73.5964 0.245421C73.5267 0.20296 73.4563 0.161349 73.3798 0.129079C73.3476 0.116341 73.3136 0.109548 73.2805 0.0976587C73.2108 0.0730317 73.1412 0.0475556 73.0682 0.033119C72.9603 0.0118889 72.8491 0 72.737 0H15.8826C13.1167 0 10.8672 2.24955 10.8672 5.01541V101.985C10.8672 104.75 13.1167 107 15.8826 107H91.1384C93.9043 107 96.1326 104.75 96.1326 101.985V23.4169C96.1326 23.3048 96.1318 23.1935 96.1097 23.0865ZM92.7893 101.985C92.7893 102.907 92.0615 103.657 91.1393 103.657H15.8826C14.9604 103.657 14.2105 102.907 14.2105 101.985V5.01541C14.2105 4.09402 14.9595 3.34333 15.8826 3.34333H71.0547V17.8444C71.0547 21.839 74.3156 25.0779 78.3095 25.0779H92.7893V101.985Z" fill="#212D64"/>
<path d="M86.2399 30.0933H20.7805C19.8565 30.0942 19.1084 30.8423 19.1084 31.7654C19.1084 32.6885 19.8565 33.4375 20.7805 33.4375H86.2399C87.1646 33.4375 87.9119 32.6893 87.9119 31.7654C87.9119 30.8415 87.1646 30.0933 86.2399 30.0933Z" fill="#212D64"/>
<path d="M33.4634 38.4529H20.7805C19.8565 38.4529 19.1084 39.201 19.1084 40.125C19.1084 41.0489 19.8565 41.7971 20.7805 41.7971H33.4634C34.3865 41.7971 35.1355 41.0489 35.1355 40.125C35.1355 39.201 34.3873 38.4529 33.4634 38.4529Z" fill="#212D64"/>
<path d="M86.2399 38.4529H40.9738C40.0508 38.4529 39.3018 39.201 39.3018 40.125C39.3018 41.0489 40.0499 41.7971 40.9738 41.7971H86.2399C87.1647 41.7971 87.912 41.0489 87.912 40.125C87.912 39.201 87.1647 38.4529 86.2399 38.4529Z" fill="#212D64"/>
<path d="M86.2407 46.8125H73.5578C72.6347 46.8125 71.8857 47.5607 71.8857 48.4846C71.8857 49.4085 72.6347 50.1567 73.5578 50.1567H86.2407C87.1655 50.1567 87.9128 49.4085 87.9128 48.4846C87.9128 47.5607 87.1655 46.8125 86.2407 46.8125Z" fill="#212D64"/>
<path d="M66.0474 46.8116H20.7805C19.8565 46.8116 19.1084 47.5598 19.1084 48.4837C19.1084 49.4077 19.8565 50.1558 20.7805 50.1558H66.0474C66.9705 50.1558 67.7195 49.4077 67.7195 48.4837C67.7195 47.5598 66.9705 46.8116 66.0474 46.8116Z" fill="#212D64"/>
<path d="M86.2399 55.1721H20.7805C19.8565 55.1721 19.1084 55.9203 19.1084 56.8442C19.1084 57.7681 19.8565 58.5163 20.7805 58.5163H86.2399C87.1646 58.5163 87.9119 57.7681 87.9119 56.8442C87.9119 55.9203 87.1646 55.1721 86.2399 55.1721Z" fill="#212D64"/>
<path d="M86.2399 80.25H20.7805C19.8565 80.25 19.1084 80.9982 19.1084 81.9221C19.1084 82.846 19.8565 83.5942 20.7805 83.5942H86.2399C87.1646 83.5942 87.9119 82.846 87.9119 81.9221C87.9119 80.9982 87.1646 80.25 86.2399 80.25Z" fill="#212D64"/>
<path d="M33.4634 63.5308H20.7805C19.8565 63.5308 19.1084 64.279 19.1084 65.2029C19.1084 66.1268 19.8565 66.875 20.7805 66.875H33.4634C34.3865 66.875 35.1355 66.1268 35.1355 65.2029C35.1355 64.279 34.3873 63.5308 33.4634 63.5308Z" fill="#212D64"/>
<path d="M86.2399 63.5308H40.9738C40.0508 63.5308 39.3018 64.279 39.3018 65.2029C39.3018 66.1268 40.0499 66.875 40.9738 66.875H86.2399C87.1647 66.875 87.912 66.1268 87.912 65.2029C87.912 64.279 87.1647 63.5308 86.2399 63.5308Z" fill="#212D64"/>
<path d="M86.2407 71.8904H73.5578C72.6347 71.8904 71.8857 72.6385 71.8857 73.5625C71.8857 74.4864 72.6347 75.2346 73.5578 75.2346H86.2407C87.1655 75.2346 87.9128 74.4864 87.9128 73.5625C87.9128 72.6385 87.1655 71.8904 86.2407 71.8904Z" fill="#212D64"/>
<path d="M66.0474 71.8904H20.7805C19.8565 71.8904 19.1084 72.6385 19.1084 73.5625C19.1084 74.4864 19.8565 75.2346 20.7805 75.2346H66.0474C66.9705 75.2346 67.7195 74.4864 67.7195 73.5625C67.7195 72.6385 66.9705 71.8904 66.0474 71.8904Z" fill="#212D64"/>
<path d="M33.4634 88.6096H20.7805C19.8565 88.6096 19.1084 89.3578 19.1084 90.2817C19.1084 91.2056 19.8565 91.9538 20.7805 91.9538H33.4634C34.3865 91.9538 35.1355 91.2056 35.1355 90.2817C35.1355 89.3578 34.3865 88.6096 33.4634 88.6096Z" fill="#212D64"/>
<path d="M86.2399 88.6096H40.9738C40.0508 88.6096 39.3018 89.3578 39.3018 90.2817C39.3018 91.2056 40.0499 91.9538 40.9738 91.9538H86.2399C87.1647 91.9538 87.912 91.2056 87.912 90.2817C87.912 89.3578 87.1647 88.6096 86.2399 88.6096Z" fill="#212D64"/>
</g>
<defs>
<clipPath id="clip0_1022_1148">
<rect width="107" height="107" fill="white"/>
</clipPath>
</defs>
</svg>
