<svg width="27" height="23" viewBox="0 0 27 23" fill="none" xmlns="http://www.w3.org/2000/svg">
<path d="M18.7261 3.92534C19.3489 3.9257 19.9631 4.06591 20.52 4.33485C21.0769 4.60379 21.5613 4.99409 21.9348 5.47485C22.3083 5.95561 22.5607 6.51363 22.6719 7.10475C22.7831 7.69586 22.7502 8.30383 22.5757 8.88054C22.4012 9.45725 22.0899 9.98687 21.6665 10.4275C21.2431 10.8681 20.7192 11.2075 20.1363 11.419C19.5533 11.6305 18.9274 11.7082 18.3079 11.646C17.6884 11.5837 17.0925 11.3832 16.5673 11.0604M20.0637 15.5375C21.4827 15.5375 22.8436 16.0813 23.8469 17.0491C24.8503 18.017 25.414 19.3297 25.414 20.6985V21.9888H20.9358M13.3758 5.8607C13.3758 6.45373 13.2547 7.04096 13.0194 7.58884C12.7842 8.13673 12.4393 8.63456 12.0046 9.05389C11.5699 9.47323 11.0538 9.80586 10.4858 10.0328C9.91783 10.2597 9.30906 10.3766 8.69427 10.3766C8.07949 10.3766 7.47072 10.2597 6.90273 10.0328C6.33474 9.80586 5.81865 9.47323 5.38393 9.05389C4.94921 8.63456 4.60437 8.13673 4.3691 7.58884C4.13384 7.04096 4.01274 6.45373 4.01274 5.8607C4.01274 4.66302 4.50598 3.5144 5.38393 2.66751C6.26189 1.82062 7.45265 1.34485 8.69427 1.34485C9.93589 1.34485 11.1267 1.82062 12.0046 2.66751C12.8826 3.5144 13.3758 4.66302 13.3758 5.8607ZM6.6879 14.2473H10.7006C12.1196 14.2473 13.4805 14.791 14.4839 15.7589C15.4873 16.7268 16.051 18.0395 16.051 19.4083V21.9888H1.33759V19.4083C1.33759 18.0395 1.90128 16.7268 2.90466 15.7589C3.90804 14.791 5.26891 14.2473 6.6879 14.2473Z" stroke="white" stroke-width="2" stroke-linecap="round" stroke-linejoin="round"/>
</svg>
